<svg width="1810" height="180" viewBox="0 0 1810 180" fill="none" xmlns="http://www.w3.org/2000/svg">
<g filter="url(#filter0_d_1_582)">
<rect x="20" y="8" width="338" height="140" rx="10" fill="white" shape-rendering="crispEdges"/>
<rect x="20.5" y="8.5" width="337" height="139" rx="9.5" stroke="black" stroke-opacity="0.18" shape-rendering="crispEdges"/>
<g clip-path="url(#clip0_1_582)">
<path d="M92.5964 78.3535L97.1262 80.4472L96.546 85.6526L88.4488 94.8281C83.7486 91.8022 80.3982 86.8614 79.5 81.1079L92.5964 78.3535Z" fill="#15E3FF"/>
<path d="M104.683 83.94L110.741 94.3789C107.492 96.6605 103.533 98 99.2608 98C97.874 98 96.5202 97.8587 95.2129 97.59L96.5456 85.6527L99.9761 81.7656L104.683 83.94Z" fill="#348DFC"/>
<path d="M118.602 72.8809C119.033 74.5142 119.263 76.2293 119.263 77.9981C119.263 82.1144 118.019 85.9402 115.887 89.1206L104.684 83.9404L102.055 79.4122L105.357 75.6691L118.602 72.8809Z" fill="#FD4873"/>
<path d="M99.6316 58C105.65 58.1094 111.019 60.877 114.614 65.1784L105.356 75.6694L100.479 76.6959L98.0186 72.4574L99.6316 58Z" fill="#FFC700"/>
<path d="M98.0189 72.4576L97.4744 77.3271L92.599 78.3532L80.0146 72.5349C81.5996 66.9406 85.5579 62.3438 90.7326 59.9009L98.0189 72.4576Z" fill="#00E7B9"/>
<path d="M272.413 87.3379V77.7623C272.413 72.2856 275.588 69.8745 279.728 69.8745C282.144 69.8745 284.18 70.8045 285.457 72.5956C286.733 70.8045 288.735 69.8745 291.185 69.8745C295.325 69.8745 298.5 72.2856 298.5 77.7623V87.3379H293.324V77.7623C293.324 75.489 292.22 74.6968 290.667 74.6968C289.149 74.6968 288.045 75.489 288.045 77.7623V87.3379H282.869V77.7623C282.869 75.489 281.764 74.6968 280.246 74.6968C278.693 74.6968 277.589 75.489 277.589 77.7623V87.3379H272.413Z" fill="#002469"/>
<path d="M261.798 87.627C256.76 87.627 253.378 84.7336 253.378 78.9814V70.1636H258.554V78.9814C258.554 81.6681 259.865 82.8047 261.798 82.8047C263.73 82.8047 265.041 81.6681 265.041 78.9814V70.1636H270.217V78.9814C270.217 84.6992 266.836 87.627 261.798 87.627Z" fill="#002469"/>
<path d="M244.573 87.627C240.19 87.627 237.361 85.2848 237.292 82.0125H242.399C242.433 82.9081 243.089 83.3559 244.504 83.3559C246.091 83.3559 246.609 82.8048 246.609 82.0814C246.609 80.9448 245.366 80.8414 243.779 80.6003C241.433 80.2559 237.568 79.6703 237.568 75.5714C237.568 72.1269 240.294 69.7158 244.538 69.7158C248.783 69.7158 251.405 72.1614 251.509 75.227H246.471C246.333 74.4347 245.642 73.9869 244.607 73.9869C243.331 73.9869 242.813 74.6414 242.813 75.3303C242.813 76.3636 244.055 76.5014 245.643 76.7425C248.092 77.087 251.854 77.7414 251.854 81.7714C251.854 85.2848 248.955 87.627 244.573 87.627Z" fill="#002469"/>
<path d="M218.172 94.4471V78.8436C218.172 73.1258 222.036 69.7158 227.247 69.7158C232.664 69.7158 236.46 73.4014 236.46 78.8781C236.46 84.8026 232.043 87.627 228.179 87.627C226.143 87.627 224.417 86.8348 223.348 85.3192V94.4471H218.172ZM227.281 82.8048C229.628 82.8048 231.215 81.117 231.215 78.6714C231.215 76.2258 229.628 74.5381 227.281 74.5381C224.935 74.5381 223.348 76.2258 223.348 78.6714C223.348 81.117 224.935 82.8048 227.281 82.8048Z" fill="#002469"/>
<path d="M212.824 68.6134C210.926 68.6134 209.511 67.2011 209.511 65.3067C209.511 63.4122 210.926 62 212.824 62C214.721 62 216.136 63.4122 216.136 65.3067C216.136 67.2011 214.721 68.6134 212.824 68.6134ZM210.236 87.179V70.1634H215.412V87.179H210.236Z" fill="#002469"/>
<path d="M199.002 87.627C193.619 87.627 189.823 83.8381 189.823 78.6714C189.823 73.5047 193.619 69.7158 199.002 69.7158C204.385 69.7158 208.181 73.5047 208.181 78.6714C208.181 83.8381 204.385 87.627 199.002 87.627ZM199.002 82.8048C201.349 82.8048 202.936 81.117 202.936 78.6714C202.936 76.2258 201.349 74.5381 199.002 74.5381C196.656 74.5381 195.068 76.2258 195.068 78.6714C195.068 81.117 196.656 82.8048 199.002 82.8048Z" fill="#002469"/>
<path d="M179.832 87.627C174.449 87.627 170.653 83.8381 170.653 78.6714C170.653 73.5047 174.449 69.7158 179.832 69.7158C185.215 69.7158 189.011 73.5047 189.011 78.6714C189.011 83.8381 185.215 87.627 179.832 87.627ZM179.832 82.8048C182.178 82.8048 183.766 81.117 183.766 78.6714C183.766 76.2258 182.178 74.5381 179.832 74.5381C177.486 74.5381 175.898 76.2258 175.898 78.6714C175.898 81.117 177.486 82.8048 179.832 82.8048Z" fill="#002469"/>
<path d="M160.662 87.627C155.279 87.627 151.483 83.8381 151.483 78.6714C151.483 73.5047 155.279 69.7158 160.662 69.7158C166.045 69.7158 169.841 73.5047 169.841 78.6714C169.841 83.8381 166.045 87.627 160.662 87.627ZM160.662 82.8048C163.009 82.8048 164.596 81.117 164.596 78.6714C164.596 76.2258 163.009 74.5381 160.662 74.5381C158.316 74.5381 156.728 76.2258 156.728 78.6714C156.728 81.117 158.316 82.8048 160.662 82.8048Z" fill="#002469"/>
<path d="M134.5 87.1791V64.6523H140.09V82.0124H150.753V87.1791H134.5Z" fill="#002469"/>
<path d="M188.324 88.7739C187.802 93.5563 184.583 96.0002 179.981 96.0002C175.376 96.0002 172.156 93.5826 171.637 88.7739H176.888C177.283 90.4474 178.432 91.1778 179.981 91.1778C181.529 91.1778 182.678 90.4475 183.074 88.7739H188.324Z" fill="#002469"/>
</g>
</g>
<g filter="url(#filter1_d_1_582)">
<rect x="378" y="8" width="338" height="140" rx="10" fill="white" shape-rendering="crispEdges"/>
<rect x="378.5" y="8.5" width="337" height="139" rx="9.5" stroke="black" stroke-opacity="0.18" shape-rendering="crispEdges"/>
<g clip-path="url(#clip1_1_582)">
<path d="M470.571 81.7998C470.571 76.2034 466.132 71.6665 460.656 71.6665H452.394V81.7998H460.656V94.4665H470.571V81.7998Z" fill="black"/>
<path d="M440 82.6442C440 89.1735 445.179 94.4665 451.568 94.4665H458.178V84.3331H451.568C450.655 84.3331 449.915 83.577 449.915 82.6442V81.7998H440L440 82.6442Z" fill="black"/>
<path d="M460.656 59C472.977 59 482.965 69.2079 482.965 81.8V94.4667H473.05V81.8C473.05 74.8044 467.501 69.1333 460.656 69.1333H451.568C450.655 69.1333 449.915 69.8894 449.915 70.8222V71.6667H440V70.8222C440 64.293 445.179 59 451.568 59H460.656Z" fill="black"/>
<path d="M565.731 68.726C565.084 68.726 564.542 68.5027 564.103 68.0559C563.665 67.6092 563.446 67.056 563.446 66.3965C563.446 65.737 563.665 65.1838 564.103 64.7371C564.542 64.2903 565.084 64.0669 565.731 64.0669C566.356 64.0669 566.888 64.2903 567.326 64.7371C567.764 65.1838 567.983 65.737 567.983 66.3965C567.983 67.056 567.764 67.6092 567.326 68.0559C566.888 68.5027 566.356 68.726 565.731 68.726Z" fill="black"/>
<path d="M567.483 71.0557V88.6392H563.916V71.0557H567.483Z" fill="black"/>
<path fill-rule="evenodd" clip-rule="evenodd" d="M577.11 71.5977C576.067 72.1508 575.243 72.8316 574.638 73.6401V71.0553H571.071V96.9998H574.638V86.0859C575.285 86.8943 576.12 87.575 577.142 88.1282C578.164 88.6601 579.331 88.9261 580.646 88.9261C582.148 88.9261 583.514 88.5431 584.745 87.7772C585.997 86.99 586.977 85.905 587.686 84.5221C588.395 83.118 588.75 81.533 588.75 79.7672C588.75 78.0014 588.395 76.4378 587.686 75.0762C586.977 73.7146 585.997 72.6615 584.745 71.9168C583.514 71.1509 582.148 70.7681 580.646 70.7681C579.331 70.7681 578.153 71.0446 577.11 71.5977ZM584.369 76.6398C584.87 77.5121 585.12 78.5546 585.12 79.7672C585.12 80.9799 584.87 82.0437 584.369 82.9585C583.89 83.8733 583.243 84.5753 582.43 85.0647C581.637 85.5327 580.781 85.7668 579.863 85.7668C578.967 85.7668 578.112 85.5327 577.298 85.0647C576.506 84.5966 575.859 83.9158 575.358 83.0223C574.878 82.1074 574.638 81.0438 574.638 79.8311C574.638 78.6184 574.878 77.5653 575.358 76.6717C575.859 75.7782 576.506 75.0974 577.298 74.6294C578.112 74.1614 578.967 73.9273 579.863 73.9273C580.781 73.9273 581.637 74.1614 582.43 74.6294C583.243 75.0762 583.89 75.7463 584.369 76.6398Z" fill="black"/>
<path d="M597.441 88.9261C596.085 88.9261 594.865 88.6814 593.78 88.1921C592.716 87.6814 591.871 87.0007 591.246 86.1497C590.619 85.2774 590.285 84.3094 590.244 83.2457H593.937C593.999 83.9903 594.343 84.6179 594.969 85.1285C595.616 85.6178 596.419 85.8624 597.378 85.8624C598.379 85.8624 599.151 85.671 599.694 85.288C600.257 84.8838 600.538 84.3732 600.538 83.7563C600.538 83.0968 600.225 82.6074 599.6 82.2883C598.995 81.9692 598.025 81.6182 596.69 81.2352C595.397 80.8735 594.343 80.5225 593.529 80.1821C592.716 79.8417 592.007 79.3205 591.402 78.6184C590.818 77.9164 590.526 76.9909 590.526 75.8421C590.526 74.9059 590.797 74.055 591.339 73.2891C591.882 72.5019 592.653 71.8849 593.655 71.4382C594.677 70.9914 595.845 70.7681 597.159 70.7681C599.12 70.7681 600.695 71.2786 601.884 72.2998C603.094 73.2997 603.74 74.6719 603.824 76.4165H600.257C600.194 75.6293 599.882 75.0017 599.318 74.5337C598.755 74.0656 597.994 73.8316 597.034 73.8316C596.096 73.8316 595.376 74.0124 594.875 74.3741C594.375 74.7358 594.124 75.2145 594.124 75.8102C594.124 76.2782 594.291 76.6717 594.625 76.9909C594.959 77.31 595.365 77.5653 595.845 77.7568C596.325 77.927 597.034 78.1504 597.973 78.4269C599.225 78.7673 600.247 79.1184 601.039 79.48C601.853 79.8204 602.551 80.3311 603.135 81.0119C603.72 81.6926 604.022 82.5968 604.043 83.7244C604.043 84.7243 603.772 85.6178 603.23 86.405C602.687 87.1922 601.915 87.8091 600.914 88.2558C599.934 88.7026 598.776 88.9261 597.441 88.9261Z" fill="black"/>
<path d="M650.526 71.6297C649.463 71.0553 648.253 70.7681 646.898 70.7681C645.625 70.7681 644.435 71.0872 643.33 71.7254C642.224 72.3424 641.411 73.1827 640.89 74.2464C640.306 73.1189 639.471 72.2572 638.386 71.6616C637.301 71.0659 636.071 70.7681 634.694 70.7681C633.672 70.7681 632.712 70.9701 631.815 71.3744C630.919 71.7786 630.178 72.3424 629.594 73.0657V71.0553H626.026V88.6388H629.594V78.8099C629.594 77.2356 629.98 76.0335 630.752 75.2038C631.544 74.3528 632.608 73.9273 633.944 73.9273C635.278 73.9273 636.331 74.3528 637.103 75.2038C637.875 76.0335 638.262 77.2356 638.262 78.8099V88.6388H641.797V78.8099C641.797 77.2356 642.183 76.0335 642.955 75.2038C643.747 74.3528 644.811 73.9273 646.146 73.9273C647.481 73.9273 648.534 74.3528 649.307 75.2038C650.079 76.0335 650.465 77.2356 650.465 78.8099V88.6388H654V78.2674C654 76.6717 653.687 75.3102 653.061 74.1827C652.457 73.0551 651.611 72.204 650.526 71.6297Z" fill="black"/>
<path d="M622.415 88.6392V71.0557H618.848V80.8527C618.848 82.427 618.452 83.6397 617.659 84.4906C616.887 85.3204 615.834 85.7352 614.499 85.7352C613.164 85.7352 612.11 85.3204 611.338 84.4906C610.567 83.6397 610.181 82.427 610.181 80.8527V71.0557H606.645V81.3951C606.645 82.9908 606.948 84.3524 607.553 85.48C608.178 86.6075 609.023 87.4585 610.087 88.0329C611.172 88.6073 612.392 88.8946 613.748 88.8946C614.77 88.8946 615.729 88.6924 616.627 88.2882C617.544 87.8627 618.285 87.2882 618.848 86.5649V88.6392H622.415Z" fill="black"/>
<path fill-rule="evenodd" clip-rule="evenodd" d="M548.123 87.8091C549.438 88.5538 550.909 88.9261 552.535 88.9261C554.184 88.9261 555.685 88.5538 557.041 87.8091C558.418 87.0432 559.502 85.9688 560.296 84.586C561.088 83.2031 561.485 81.6182 561.485 79.8311C561.485 78.044 561.099 76.459 560.327 75.0762C559.555 73.6933 558.502 72.6296 557.167 71.8849C555.831 71.1403 554.34 70.7681 552.692 70.7681C551.044 70.7681 549.553 71.1403 548.217 71.8849C546.882 72.6296 545.829 73.6933 545.057 75.0762C544.285 76.459 543.899 78.044 543.899 79.8311C543.899 81.6394 544.275 83.235 545.026 84.6179C545.777 85.9795 546.809 87.0432 548.123 87.8091ZM555.101 85.0966C554.309 85.5433 553.453 85.7668 552.535 85.7668C551.096 85.7668 549.896 85.2561 548.937 84.2349C547.998 83.1925 547.529 81.7246 547.529 79.8311C547.529 78.5546 547.759 77.4802 548.217 76.6079C548.676 75.7144 549.292 75.0442 550.063 74.5975C550.856 74.1507 551.712 73.9273 552.63 73.9273C553.548 73.9273 554.403 74.1507 555.195 74.5975C555.988 75.0442 556.624 75.7144 557.104 76.6079C557.584 77.4802 557.823 78.5546 557.823 79.8311C557.823 81.1075 557.573 82.1926 557.072 83.0861C556.572 83.9797 555.915 84.6498 555.101 85.0966Z" fill="black"/>
<path fill-rule="evenodd" clip-rule="evenodd" d="M529.338 87.8497C529.314 87.8363 529.29 87.8228 529.266 87.8091C527.951 87.0432 526.918 85.9795 526.167 84.6179C525.417 83.235 525.041 81.6394 525.041 79.8311C525.041 78.044 525.427 76.459 526.199 75.0762C526.97 73.6933 528.024 72.6296 529.359 71.8849C530.694 71.1403 532.186 70.7681 533.834 70.7681C535.482 70.7681 536.973 71.1403 538.308 71.8849C539.643 72.6296 540.697 73.6933 541.469 75.0762C542.24 76.459 542.626 78.044 542.626 79.8311C542.626 81.6182 542.23 83.2031 541.437 84.586C540.645 85.9688 539.56 87.0432 538.183 87.8091C537.017 88.4495 535.743 88.8144 534.361 88.9041C536.054 89.6943 538.63 90.3323 540.076 90.6905C540.695 90.8438 541.108 90.9459 541.155 90.9867L541.158 90.9872V94.6277H528.162V90.9872H535.651C533.746 90.5484 531.159 89.108 529.338 87.8497ZM533.677 85.7668C534.595 85.7668 535.45 85.5433 536.243 85.0966C537.056 84.6498 537.713 83.9797 538.214 83.0861C538.715 82.1926 538.965 81.1075 538.965 79.8311C538.965 78.5546 538.725 77.4802 538.245 76.6079C537.766 75.7144 537.129 75.0442 536.337 74.5975C535.544 74.1507 534.689 73.9273 533.771 73.9273C532.853 73.9273 531.998 74.1507 531.205 74.5975C530.433 75.0442 529.818 75.7144 529.359 76.6079C528.9 77.4802 528.671 78.5546 528.671 79.8311C528.671 81.7246 529.14 83.1925 530.079 84.2349C531.039 85.2561 532.238 85.7668 533.677 85.7668Z" fill="black"/>
<path fill-rule="evenodd" clip-rule="evenodd" d="M510.408 87.8091C511.722 88.5538 513.193 88.9261 514.82 88.9261C516.468 88.9261 517.969 88.5538 519.325 87.8091C520.702 87.0432 521.787 85.9688 522.58 84.586C523.372 83.2031 523.769 81.6182 523.769 79.8311C523.769 78.044 523.383 76.459 522.611 75.0762C521.839 73.6933 520.786 72.6296 519.451 71.8849C518.115 71.1403 516.624 70.7681 514.976 70.7681C513.328 70.7681 511.837 71.1403 510.502 71.8849C509.167 72.6296 508.113 73.6933 507.341 75.0762C506.569 76.459 506.184 78.044 506.184 79.8311C506.184 81.6394 506.559 83.235 507.31 84.6179C508.061 85.9795 509.093 87.0432 510.408 87.8091ZM517.385 85.0966C516.593 85.5433 515.737 85.7668 514.82 85.7668C513.38 85.7668 512.181 85.2561 511.221 84.2349C510.283 83.1925 509.813 81.7246 509.813 79.8311C509.813 78.5546 510.043 77.4802 510.502 76.6079C510.961 75.7144 511.576 75.0442 512.348 74.5975C513.14 74.1507 513.996 73.9273 514.913 73.9273C515.831 73.9273 516.687 74.1507 517.479 74.5975C518.272 75.0442 518.908 75.7144 519.388 76.6079C519.868 77.4802 520.108 78.5546 520.108 79.8311C520.108 81.1075 519.857 82.1926 519.357 83.0861C518.856 83.9797 518.199 84.6498 517.385 85.0966Z" fill="black"/>
<path d="M498.1 85.703H505.453V88.6389H494.533V66.46H498.1V85.703Z" fill="black"/>
</g>
</g>
<g filter="url(#filter2_d_1_582)">
<rect x="736" y="8" width="338" height="140" rx="10" fill="white" shape-rendering="crispEdges"/>
<rect x="736.5" y="8.5" width="337" height="139" rx="9.5" stroke="black" stroke-opacity="0.18" shape-rendering="crispEdges"/>
<g clip-path="url(#clip2_1_582)">
<path d="M818.816 60C825.13 60 830.248 65.2383 830.248 71.7C830.248 78.1617 825.13 83.4 818.816 83.4H811.327L823.639 96H808.716L794.858 81.818C793.903 80.8408 793.312 79.4912 793.312 78C793.312 75.0177 795.674 72.6 798.589 72.6H818.816C819.301 72.6 819.695 72.1971 819.695 71.7C819.695 71.2029 819.301 70.8 818.816 70.8H798.589C794.703 70.8 791.553 74.0235 791.553 78C791.553 80.1511 792.475 82.0812 793.936 83.4H793.917L806.229 96H798.589C788.875 96 781 87.9411 781 78C781 68.0589 788.875 60 798.589 60H818.816Z" fill="#3902FF"/>
<path d="M830.248 85.2002V96.0002H826.125L815.572 85.2002H830.248Z" fill="#3902FF"/>
<path d="M1020.76 67.4736L1020.89 67.5193C1022.6 67.5649 1024.09 68.7972 1024.53 70.4858L1024.57 70.6683L1029 89.3803H1023.13L1020.5 78.2444L1018.44 85.0446C1017.83 86.9158 1016.16 88.2394 1014.23 88.2394C1012.39 88.2394 1010.73 87.0071 1010.12 85.2272L1010.03 85.0446L1007.97 78.2444L1005.34 89.3803H999.513L1003.89 70.6683L1003.94 70.4858C1004.42 68.7059 1005.95 67.4736 1007.75 67.4736L1007.88 67.5193C1009.5 67.5649 1010.9 68.6602 1011.47 70.2119L1011.52 70.3489L1014.23 79.2485L1016.95 70.3489L1016.99 70.2119C1017.56 68.569 1019.05 67.4736 1020.76 67.4736Z" fill="#130058"/>
<path d="M988.746 89.3803C982.919 89.3803 978.23 84.497 978.23 78.4269V67.4736H983.883V78.4269C983.883 81.2109 986.073 83.4929 988.746 83.4929C991.374 83.4929 993.565 81.2109 993.565 78.4269V67.4736H999.261V78.4269C999.261 84.497 994.53 89.3803 988.746 89.3803Z" fill="#130058"/>
<path d="M977.201 67.4736V73.4067C974.747 73.4067 972.6 75.0953 971.899 77.5598L970.891 81.0284C969.489 86.0031 965.107 89.3803 960.156 89.3803V83.4929C962.567 83.4929 964.757 81.8043 965.458 79.3397L966.422 75.8712C967.824 70.8966 972.205 67.4736 977.201 67.4736Z" fill="#130058"/>
<path d="M954.48 76.9665C955.4 76.9665 956.188 76.1907 956.188 75.1866C956.188 74.2282 955.4 73.4067 954.48 73.4067H948.215V76.9665H954.48ZM954.48 67.4736C958.555 67.4736 961.885 70.9422 961.885 75.1866C961.885 79.4311 958.555 82.8996 954.48 82.8996H948.215V89.3803H942.562V72.8134C942.562 69.8925 944.841 67.4736 947.645 67.4736H954.48Z" fill="#130058"/>
<path d="M934.141 67.4736H939.793V89.3803H934.141V67.4736Z" fill="#130058"/>
<path d="M921.396 73.1333H920.257C917.408 73.1333 915.13 75.5065 915.13 78.4273C915.13 81.3939 917.408 83.7671 920.257 83.7671H921.396C924.243 83.7671 926.522 81.3939 926.522 78.4273C926.522 75.5065 924.243 73.1333 921.396 73.1333ZM920.257 67.2002H921.396C927.355 67.2002 932.174 72.2205 932.174 78.4273C932.174 84.6799 927.355 89.7002 921.396 89.7002H920.257C914.298 89.7002 909.478 84.6799 909.478 78.4273C909.478 72.2205 914.298 67.2002 920.257 67.2002Z" fill="#130058"/>
<path d="M907.076 73.4067H896.035C893.362 73.4067 891.172 75.6886 891.172 78.4269C891.172 81.2109 893.362 83.4929 896.035 83.4929H901.512C902.082 83.4016 902.564 82.8996 902.564 82.2607V81.713H894.02V75.78H903.528C906.156 75.78 908.216 77.9706 908.216 80.6633V82.2607C908.216 86.1399 905.28 89.2891 901.556 89.3803H896.035C890.208 89.3803 885.52 84.497 885.52 78.4269C885.52 72.4026 890.208 67.4736 896.035 67.4736H907.076V73.4067Z" fill="#130058"/>
<path d="M873.738 73.1333H872.599C869.751 73.1333 867.472 75.5065 867.472 78.4273C867.472 81.3939 869.751 83.7671 872.599 83.7671H873.738C876.586 83.7671 878.865 81.3939 878.865 78.4273C878.865 75.5065 876.586 73.1333 873.738 73.1333ZM872.599 67.2002H873.738C879.697 67.2002 884.517 72.2205 884.517 78.4273C884.517 84.6799 879.697 89.7002 873.738 89.7002H872.599C866.64 89.7002 861.82 84.6799 861.82 78.4273C861.82 72.2205 866.64 67.2002 872.599 67.2002Z" fill="#130058"/>
<path d="M843.439 80.5264V67.4736H849.092V80.5264C849.092 82.1694 850.362 83.4929 851.94 83.4929H860.483V89.3803H851.94C847.251 89.3803 843.439 85.4098 843.439 80.5264Z" fill="#130058"/>
</g>
</g>
<g filter="url(#filter3_d_1_582)">
<rect x="1094" y="8" width="338" height="140" rx="10" fill="white" shape-rendering="crispEdges"/>
<rect x="1094.5" y="8.5" width="337" height="139" rx="9.5" stroke="black" stroke-opacity="0.18" shape-rendering="crispEdges"/>
<g clip-path="url(#clip3_1_582)">
<path d="M1171.17 61C1180.15 61 1187.43 68.2306 1187.43 77.15V95C1183.65 95 1180.58 91.9556 1180.58 88.2V77.15C1180.58 71.9862 1176.37 67.8 1171.17 67.8H1166.71C1164.44 67.8 1162.26 68.6954 1160.66 70.2894L1149.05 81.8126C1148.41 82.4501 1148.05 83.3148 1148.05 84.2165V84.8C1148.05 86.6777 1149.58 88.2 1151.47 88.2H1166.89C1166.89 91.8381 1164.01 94.8086 1160.39 94.9909L1160.04 95H1151.47C1145.8 95 1141.2 90.4333 1141.2 84.8V84.2165C1141.2 81.5114 1142.28 78.9167 1144.21 77.0039L1155.82 65.4816C1158.71 62.6123 1162.63 61 1166.71 61H1171.17Z" fill="#FF500B"/>
<path d="M1172.88 71.2002C1175.24 71.2002 1177.16 73.103 1177.16 75.4502V95.0002C1173.38 95.0002 1170.31 91.9557 1170.31 88.2002V78.0002H1167.45L1161.85 83.5554C1161.05 84.3524 1159.96 84.8002 1158.82 84.8002H1151.88C1151.53 84.8002 1151.35 84.3698 1151.6 84.1182L1163.36 72.4453C1164.16 71.6483 1165.25 71.2002 1166.38 71.2002H1172.88Z" fill="#FF500B"/>
<path d="M1376.28 86.5402V75.5851C1376.28 75.2695 1376 74.9853 1375.68 74.9853H1375.27C1375.01 74.9853 1374.79 75.1431 1374.69 75.3641L1370.85 84.3934C1370.31 85.7194 1369 86.5402 1367.57 86.5402C1366.14 86.5402 1364.87 85.7194 1364.33 84.3934L1360.45 75.3641C1360.38 75.1431 1360.16 74.9853 1359.91 74.9853H1359.49C1359.18 74.9853 1358.89 75.2695 1358.89 75.5851V86.5402H1355.3V75.5851C1355.3 73.2805 1357.17 71.3862 1359.49 71.3862H1359.91C1361.59 71.3862 1363.12 72.3965 1363.79 73.975L1367.57 82.878L1371.35 73.975C1372.02 72.3965 1373.55 71.3862 1375.27 71.3862H1375.68C1378 71.3862 1379.88 73.2805 1379.88 75.5851V86.5402H1376.28Z" fill="#A62F00"/>
<path d="M1338.9 86.5402C1335.24 86.5402 1332.28 83.604 1332.28 79.9734V71.3862H1335.88V79.9734C1335.88 81.6151 1337.24 82.9727 1338.9 82.9727H1346.53C1348.18 82.9727 1349.55 81.6151 1349.55 79.9734V71.3862H1353.14V79.9734C1353.14 83.604 1350.18 86.5402 1346.53 86.5402H1338.9Z" fill="#A62F00"/>
<path d="M1325.66 82.9727C1326.27 82.9727 1326.78 82.4675 1326.78 81.8677C1326.78 81.2678 1326.3 80.7943 1325.73 80.7627H1317.24C1314.63 80.7627 1312.53 78.6791 1312.53 76.0902C1312.53 73.5015 1314.63 71.3862 1317.24 71.3862H1330.4V74.9853H1317.24C1316.63 74.9853 1316.12 75.4905 1316.12 76.0902C1316.12 76.6901 1316.63 77.1952 1317.24 77.1952H1325.79C1328.33 77.2584 1330.4 79.3104 1330.4 81.8677C1330.4 84.4565 1328.27 86.5402 1325.66 86.5402H1312.53V82.9727H1325.66Z" fill="#A62F00"/>
<path d="M1292.35 86.5402V75.5851C1292.35 73.2805 1294.23 71.3862 1296.55 71.3862H1305.8C1308.79 71.3862 1311.21 73.8171 1311.21 76.7848C1311.21 79.7524 1308.79 82.1834 1305.8 82.1834H1295.94V86.5402H1292.35ZM1295.94 75.5851V78.5844H1305.8C1306.79 78.5844 1307.61 77.7635 1307.61 76.7848C1307.61 75.8061 1306.79 74.9853 1305.8 74.9853H1296.55C1296.23 74.9853 1295.94 75.2695 1295.94 75.5851Z" fill="#A62F00"/>
<path d="M1286.3 71.3862H1289.89V86.5402H1286.3V71.3862Z" fill="#A62F00"/>
<path d="M1276.78 82.9727C1279.01 82.9727 1280.82 81.1731 1280.82 78.9632C1280.82 76.7848 1279.01 74.9853 1276.78 74.9853H1271.18C1268.96 74.9853 1267.14 76.7848 1267.14 78.9632C1267.14 81.1731 1268.96 82.9727 1271.18 82.9727H1276.78ZM1276.78 71.3862C1281.01 71.3862 1284.41 74.7958 1284.41 78.9632C1284.41 83.1621 1281.01 86.5402 1276.78 86.5402H1271.18C1266.95 86.5402 1263.55 83.1621 1263.55 78.9632C1263.55 74.7958 1266.95 71.3862 1271.18 71.3862H1276.78Z" fill="#A62F00"/>
<path d="M1249.57 86.5402C1245.34 86.5402 1241.94 83.1621 1241.94 78.9632C1241.94 74.7958 1245.34 71.3862 1249.57 71.3862H1260.6V74.9853H1249.57C1247.34 74.9853 1245.53 76.7848 1245.53 78.9632C1245.53 81.1731 1247.34 82.9727 1249.57 82.9727H1257.68C1258.28 82.9727 1258.79 82.4675 1258.79 81.8677C1258.79 81.2678 1258.28 80.7627 1257.68 80.7627H1248.97V77.1952H1257.68C1260.29 77.1952 1262.42 79.2789 1262.42 81.8677C1262.42 84.4565 1260.29 86.5402 1257.68 86.5402H1249.57Z" fill="#A62F00"/>
<path d="M1233.12 82.9727C1235.34 82.9727 1237.16 81.1731 1237.16 78.9632C1237.16 76.7848 1235.34 74.9853 1233.12 74.9853H1227.52C1225.3 74.9853 1223.48 76.7848 1223.48 78.9632C1223.48 81.1731 1225.3 82.9727 1227.52 82.9727H1233.12ZM1233.12 71.3862C1237.35 71.3862 1240.75 74.7958 1240.75 78.9632C1240.75 83.1621 1237.35 86.5402 1233.12 86.5402H1227.52C1223.29 86.5402 1219.89 83.1621 1219.89 78.9632C1219.89 74.7958 1223.29 71.3862 1227.52 71.3862H1233.12Z" fill="#A62F00"/>
<path d="M1205.18 82.3729C1205.18 82.6886 1205.46 82.9727 1205.78 82.9727H1219.23V86.5402H1205.78C1203.46 86.5402 1201.58 84.6776 1201.58 82.3729V71.2915H1205.18V82.3729Z" fill="#A62F00"/>
<path d="M1384.25 71.2918C1384.25 72.3036 1383.43 73.1238 1382.41 73.1238C1381.39 73.1238 1380.56 72.3036 1380.56 71.2918C1380.56 70.2802 1381.39 69.46 1382.41 69.46C1383.43 69.46 1384.25 70.2802 1384.25 71.2918Z" fill="#A62F00"/>
</g>
</g>
<g filter="url(#filter4_d_1_582)">
<rect x="1452" y="8" width="338" height="140" rx="10" fill="white" shape-rendering="crispEdges"/>
<rect x="1452.5" y="8.5" width="337" height="139" rx="9.5" stroke="black" stroke-opacity="0.18" shape-rendering="crispEdges"/>
<g clip-path="url(#clip4_1_582)">
<path d="M1717.34 70.9907C1719.49 70.9907 1721.21 71.6519 1722.51 72.9744C1723.84 74.276 1724.5 76.1023 1724.5 78.4534V88.6872H1720.09V79.0517C1720.09 77.6872 1719.74 76.6481 1719.05 75.9344C1718.35 75.1996 1717.41 74.8323 1716.21 74.8323C1715.01 74.8323 1714.05 75.1996 1713.34 75.9344C1712.64 76.6481 1712.3 77.6872 1712.3 79.0517V88.6872H1707.88V79.0517C1707.88 77.6872 1707.54 76.6481 1706.84 75.9344C1706.15 75.1996 1705.2 74.8323 1704 74.8323C1702.78 74.8323 1701.82 75.1996 1701.1 75.9344C1700.41 76.6481 1700.06 77.6872 1700.06 79.0517V88.6872H1695.65V71.2426H1700.06V73.3523C1700.63 72.6176 1701.36 72.0403 1702.24 71.6204C1703.14 71.2006 1704.13 70.9907 1705.2 70.9907C1706.57 70.9907 1707.79 71.2845 1708.86 71.8723C1709.93 72.4391 1710.76 73.2578 1711.35 74.3284C1711.92 73.3208 1712.74 72.5126 1713.81 71.9038C1714.9 71.295 1716.08 70.9907 1717.34 70.9907Z" fill="#170E57"/>
<path d="M1692.4 71.2422V88.6868H1687.95V86.4826C1687.38 87.2383 1686.64 87.8366 1685.71 88.2775C1684.81 88.6973 1683.82 88.9072 1682.75 88.9072C1681.38 88.9072 1680.17 88.6238 1679.12 88.057C1678.07 87.4693 1677.24 86.6191 1676.63 85.5065C1676.04 84.3729 1675.75 83.0294 1675.75 81.4759V71.2422H1680.16V80.8462C1680.16 82.2317 1680.51 83.3023 1681.2 84.058C1681.9 84.7927 1682.84 85.1601 1684.04 85.1601C1685.26 85.1601 1686.22 84.7927 1686.91 84.058C1687.6 83.3023 1687.95 82.2317 1687.95 80.8462V71.2422H1692.4Z" fill="#170E57"/>
<path d="M1666.51 88.9704C1665.08 88.9704 1663.8 88.7185 1662.66 88.2147C1661.53 87.6899 1660.62 86.9866 1659.95 86.105C1659.3 85.2233 1658.94 84.2471 1658.88 83.1765H1663.32C1663.41 83.8483 1663.73 84.4046 1664.3 84.8454C1664.89 85.2863 1665.62 85.5067 1666.48 85.5067C1667.32 85.5067 1667.97 85.3387 1668.43 85.0029C1668.92 84.667 1669.16 84.2366 1669.16 83.7118C1669.16 83.145 1668.86 82.7252 1668.27 82.4523C1667.71 82.1584 1666.79 81.8435 1665.53 81.5076C1664.23 81.1927 1663.16 80.8674 1662.31 80.5315C1661.49 80.1956 1660.78 79.6813 1660.17 78.9885C1659.58 78.2958 1659.29 77.3616 1659.29 76.1861C1659.29 75.2204 1659.56 74.3387 1660.11 73.541C1660.67 72.7433 1661.47 72.1135 1662.5 71.6517C1663.55 71.1899 1664.78 70.959 1666.19 70.959C1668.27 70.959 1669.94 71.4838 1671.18 72.5334C1672.42 73.562 1673.1 74.958 1673.23 76.7214H1669C1668.94 76.0286 1668.64 75.4828 1668.12 75.084C1667.61 74.6641 1666.93 74.4542 1666.07 74.4542C1665.27 74.4542 1664.65 74.6011 1664.21 74.895C1663.79 75.1889 1663.58 75.5983 1663.58 76.1231C1663.58 76.7109 1663.87 77.1622 1664.46 77.4771C1665.05 77.771 1665.96 78.0754 1667.2 78.3903C1668.46 78.7052 1669.5 79.0305 1670.32 79.3664C1671.14 79.7023 1671.85 80.2271 1672.44 80.9408C1673.05 81.6336 1673.36 82.5573 1673.38 83.7118C1673.38 84.7195 1673.1 85.6221 1672.53 86.4198C1671.98 87.2176 1671.19 87.8473 1670.13 88.3092C1669.1 88.75 1667.9 88.9704 1666.51 88.9704Z" fill="#170E57"/>
<path d="M1643.97 73.7614C1644.54 72.9637 1645.32 72.3025 1646.3 71.7777C1647.31 71.2319 1648.46 70.959 1649.74 70.959C1651.23 70.959 1652.58 71.3263 1653.78 72.0611C1655 72.7958 1655.95 73.8454 1656.65 75.2099C1657.36 76.5534 1657.72 78.1174 1657.72 79.9017C1657.72 81.6861 1657.36 83.271 1656.65 84.6565C1655.95 86.021 1655 87.0811 1653.78 87.8368C1652.58 88.5926 1651.23 88.9704 1649.74 88.9704C1648.46 88.9704 1647.32 88.708 1646.34 88.1832C1645.37 87.6584 1644.58 86.9971 1643.97 86.1994V97H1639.56V71.2424H1643.97V73.7614ZM1653.21 79.9017C1653.21 78.8521 1652.99 77.9494 1652.55 77.1937C1652.13 76.417 1651.56 75.8292 1650.84 75.4303C1650.15 75.0315 1649.39 74.8321 1648.57 74.8321C1647.78 74.8321 1647.02 75.042 1646.3 75.4618C1645.61 75.8607 1645.04 76.4485 1644.6 77.2252C1644.18 78.0019 1643.97 78.9151 1643.97 79.9647C1643.97 81.0143 1644.18 81.9275 1644.6 82.7042C1645.04 83.4809 1645.61 84.0792 1646.3 84.499C1647.02 84.8979 1647.78 85.0973 1648.57 85.0973C1649.39 85.0973 1650.15 84.8874 1650.84 84.4676C1651.56 84.0477 1652.13 83.4494 1652.55 82.6727C1652.99 81.896 1653.21 80.9723 1653.21 79.9017Z" fill="#170E57"/>
<path d="M1634.12 69.1641C1633.35 69.1641 1632.69 68.9227 1632.17 68.4399C1631.66 67.9361 1631.41 67.3168 1631.41 66.5821C1631.41 65.8473 1631.66 65.2386 1632.17 64.7557C1632.69 64.2519 1633.35 64 1634.12 64C1634.9 64 1635.54 64.2519 1636.05 64.7557C1636.57 65.2386 1636.84 65.8473 1636.84 66.5821C1636.84 67.3168 1636.57 67.9361 1636.05 68.4399C1635.54 68.9227 1634.9 69.1641 1634.12 69.1641ZM1636.3 71.2424V88.687H1631.88V71.2424H1636.3Z" fill="#170E57"/>
<path d="M1620.64 88.9704C1618.95 88.9704 1617.44 88.6031 1616.1 87.8683C1614.75 87.1126 1613.69 86.0525 1612.91 84.688C1612.15 83.3235 1611.78 81.749 1611.78 79.9647C1611.78 78.1803 1612.16 76.6059 1612.94 75.2414C1613.74 73.8769 1614.82 72.8273 1616.19 72.0926C1617.56 71.3368 1619.08 70.959 1620.76 70.959C1622.44 70.959 1623.97 71.3368 1625.33 72.0926C1626.7 72.8273 1627.77 73.8769 1628.55 75.2414C1629.35 76.6059 1629.75 78.1803 1629.75 79.9647C1629.75 81.749 1629.34 83.3235 1628.52 84.688C1627.72 86.0525 1626.63 87.1126 1625.24 87.8683C1623.87 88.6031 1622.34 88.9704 1620.64 88.9704ZM1620.64 85.1288C1621.43 85.1288 1622.18 84.9399 1622.87 84.562C1623.59 84.1632 1624.16 83.5754 1624.58 82.7987C1625 82.0219 1625.21 81.0773 1625.21 79.9647C1625.21 78.3063 1624.77 77.0363 1623.88 76.1546C1623.02 75.2519 1621.96 74.8006 1620.7 74.8006C1619.44 74.8006 1618.38 75.2519 1617.51 76.1546C1616.67 77.0363 1616.25 78.3063 1616.25 79.9647C1616.25 81.6231 1616.66 82.9036 1617.48 83.8063C1618.32 84.688 1619.37 85.1288 1620.64 85.1288Z" fill="#170E57"/>
<path d="M1601.63 88.9704C1599.95 88.9704 1598.44 88.6031 1597.09 87.8683C1595.75 87.1126 1594.68 86.0525 1593.91 84.688C1593.15 83.3235 1592.77 81.749 1592.77 79.9647C1592.77 78.1803 1593.16 76.6059 1593.94 75.2414C1594.74 73.8769 1595.82 72.8273 1597.19 72.0926C1598.55 71.3368 1600.08 70.959 1601.76 70.959C1603.44 70.959 1604.96 71.3368 1606.33 72.0926C1607.7 72.8273 1608.77 73.8769 1609.55 75.2414C1610.34 76.6059 1610.74 78.1803 1610.74 79.9647C1610.74 81.749 1610.33 83.3235 1609.51 84.688C1608.72 86.0525 1607.62 87.1126 1606.24 87.8683C1604.87 88.6031 1603.33 88.9704 1601.63 88.9704ZM1601.63 85.1288C1602.43 85.1288 1603.18 84.9399 1603.87 84.562C1604.58 84.1632 1605.15 83.5754 1605.57 82.7987C1605.99 82.0219 1606.2 81.0773 1606.2 79.9647C1606.2 78.3063 1605.76 77.0363 1604.88 76.1546C1604.02 75.2519 1602.96 74.8006 1601.69 74.8006C1600.43 74.8006 1599.37 75.2519 1598.51 76.1546C1597.67 77.0363 1597.25 78.3063 1597.25 79.9647C1597.25 81.6231 1597.66 82.9036 1598.48 83.8063C1599.32 84.688 1600.37 85.1288 1601.63 85.1288Z" fill="#170E57"/>
<path d="M1582.63 88.9704C1580.94 88.9704 1579.43 88.6031 1578.09 87.8683C1576.74 87.1126 1575.68 86.0525 1574.9 84.688C1574.14 83.3235 1573.77 81.749 1573.77 79.9647C1573.77 78.1803 1574.15 76.6059 1574.93 75.2414C1575.73 73.8769 1576.81 72.8273 1578.18 72.0926C1579.55 71.3368 1581.07 70.959 1582.75 70.959C1584.43 70.959 1585.96 71.3368 1587.32 72.0926C1588.69 72.8273 1589.76 73.8769 1590.54 75.2414C1591.34 76.6059 1591.74 78.1803 1591.74 79.9647C1591.74 81.749 1591.33 83.3235 1590.51 84.688C1589.71 86.0525 1588.62 87.1126 1587.23 87.8683C1585.86 88.6031 1584.33 88.9704 1582.63 88.9704ZM1582.63 85.1288C1583.43 85.1288 1584.17 84.9399 1584.87 84.562C1585.58 84.1632 1586.15 83.5754 1586.57 82.7987C1586.99 82.0219 1587.2 81.0773 1587.2 79.9647C1587.2 78.3063 1586.76 77.0363 1585.87 76.1546C1585.01 75.2519 1583.95 74.8006 1582.69 74.8006C1581.43 74.8006 1580.37 75.2519 1579.5 76.1546C1578.66 77.0363 1578.24 78.3063 1578.24 79.9647C1578.24 81.6231 1578.65 82.9036 1579.47 83.8063C1580.31 84.688 1581.37 85.1288 1582.63 85.1288Z" fill="#170E57"/>
<path d="M1565.91 85.1918H1573.17V88.687H1561.5V66.708H1565.91V85.1918Z" fill="#170E57"/>
<path d="M1593.94 91.0301C1595.05 94.3509 1598.2 96.7429 1601.9 96.7429H1602.36C1607 96.7429 1610.76 92.9875 1610.76 88.3549V87.8809H1606.21V88.3549C1606.21 90.4759 1604.48 92.1954 1602.36 92.1954H1601.9C1600.82 92.1954 1599.84 91.7488 1599.14 91.0301H1593.94Z" fill="#170E57"/>
<path d="M1532.5 58L1537.95 63.3333L1517.5 83.3333V72.6667L1532.5 58Z" fill="#06D1D4"/>
<path d="M1520.41 86.1771L1532.5 98.0001L1547.5 83.3335V72.6668L1537.95 63.3335L1517.5 83.3335L1517.5 83.3376L1537.95 63.3335V78.6668L1528.75 87.6668V78.1325L1520.41 86.1771Z" fill="#3628A0"/>
</g>
</g>
<defs>
<filter id="filter0_d_1_582" x="0" y="0" width="378" height="180" filterUnits="userSpaceOnUse" color-interpolation-filters="sRGB">
<feFlood flood-opacity="0" result="BackgroundImageFix"/>
<feColorMatrix in="SourceAlpha" type="matrix" values="0 0 0 0 0 0 0 0 0 0 0 0 0 0 0 0 0 0 127 0" result="hardAlpha"/>
<feOffset dy="12"/>
<feGaussianBlur stdDeviation="10"/>
<feComposite in2="hardAlpha" operator="out"/>
<feColorMatrix type="matrix" values="0 0 0 0 0 0 0 0 0 0 0 0 0 0 0 0 0 0 0.04 0"/>
<feBlend mode="normal" in2="BackgroundImageFix" result="effect1_dropShadow_1_582"/>
<feBlend mode="normal" in="SourceGraphic" in2="effect1_dropShadow_1_582" result="shape"/>
</filter>
<filter id="filter1_d_1_582" x="358" y="0" width="378" height="180" filterUnits="userSpaceOnUse" color-interpolation-filters="sRGB">
<feFlood flood-opacity="0" result="BackgroundImageFix"/>
<feColorMatrix in="SourceAlpha" type="matrix" values="0 0 0 0 0 0 0 0 0 0 0 0 0 0 0 0 0 0 127 0" result="hardAlpha"/>
<feOffset dy="12"/>
<feGaussianBlur stdDeviation="10"/>
<feComposite in2="hardAlpha" operator="out"/>
<feColorMatrix type="matrix" values="0 0 0 0 0 0 0 0 0 0 0 0 0 0 0 0 0 0 0.04 0"/>
<feBlend mode="normal" in2="BackgroundImageFix" result="effect1_dropShadow_1_582"/>
<feBlend mode="normal" in="SourceGraphic" in2="effect1_dropShadow_1_582" result="shape"/>
</filter>
<filter id="filter2_d_1_582" x="716" y="0" width="378" height="180" filterUnits="userSpaceOnUse" color-interpolation-filters="sRGB">
<feFlood flood-opacity="0" result="BackgroundImageFix"/>
<feColorMatrix in="SourceAlpha" type="matrix" values="0 0 0 0 0 0 0 0 0 0 0 0 0 0 0 0 0 0 127 0" result="hardAlpha"/>
<feOffset dy="12"/>
<feGaussianBlur stdDeviation="10"/>
<feComposite in2="hardAlpha" operator="out"/>
<feColorMatrix type="matrix" values="0 0 0 0 0 0 0 0 0 0 0 0 0 0 0 0 0 0 0.04 0"/>
<feBlend mode="normal" in2="BackgroundImageFix" result="effect1_dropShadow_1_582"/>
<feBlend mode="normal" in="SourceGraphic" in2="effect1_dropShadow_1_582" result="shape"/>
</filter>
<filter id="filter3_d_1_582" x="1074" y="0" width="378" height="180" filterUnits="userSpaceOnUse" color-interpolation-filters="sRGB">
<feFlood flood-opacity="0" result="BackgroundImageFix"/>
<feColorMatrix in="SourceAlpha" type="matrix" values="0 0 0 0 0 0 0 0 0 0 0 0 0 0 0 0 0 0 127 0" result="hardAlpha"/>
<feOffset dy="12"/>
<feGaussianBlur stdDeviation="10"/>
<feComposite in2="hardAlpha" operator="out"/>
<feColorMatrix type="matrix" values="0 0 0 0 0 0 0 0 0 0 0 0 0 0 0 0 0 0 0.04 0"/>
<feBlend mode="normal" in2="BackgroundImageFix" result="effect1_dropShadow_1_582"/>
<feBlend mode="normal" in="SourceGraphic" in2="effect1_dropShadow_1_582" result="shape"/>
</filter>
<filter id="filter4_d_1_582" x="1432" y="0" width="378" height="180" filterUnits="userSpaceOnUse" color-interpolation-filters="sRGB">
<feFlood flood-opacity="0" result="BackgroundImageFix"/>
<feColorMatrix in="SourceAlpha" type="matrix" values="0 0 0 0 0 0 0 0 0 0 0 0 0 0 0 0 0 0 127 0" result="hardAlpha"/>
<feOffset dy="12"/>
<feGaussianBlur stdDeviation="10"/>
<feComposite in2="hardAlpha" operator="out"/>
<feColorMatrix type="matrix" values="0 0 0 0 0 0 0 0 0 0 0 0 0 0 0 0 0 0 0.04 0"/>
<feBlend mode="normal" in2="BackgroundImageFix" result="effect1_dropShadow_1_582"/>
<feBlend mode="normal" in="SourceGraphic" in2="effect1_dropShadow_1_582" result="shape"/>
</filter>
<clipPath id="clip0_1_582">
<rect width="219" height="40" fill="white" transform="translate(79.5 58)"/>
</clipPath>
<clipPath id="clip1_1_582">
<rect width="214" height="38" fill="white" transform="translate(440 59)"/>
</clipPath>
<clipPath id="clip2_1_582">
<rect width="248" height="36" fill="white" transform="translate(781 60)"/>
</clipPath>
<clipPath id="clip3_1_582">
<rect width="244" height="34" fill="white" transform="translate(1141 61)"/>
</clipPath>
<clipPath id="clip4_1_582">
<rect width="207" height="40" fill="white" transform="translate(1517.5 58)"/>
</clipPath>
</defs>
</svg>
